<svg width="232" height="111" viewBox="0 0 232 111" fill="none" xmlns="http://www.w3.org/2000/svg">
<g clip-path="url(#clip0)">
<path d="M5.54703 67.069V79.2864H8.13491C8.13491 79.2864 10.6573 79.1244 11.9676 78.6707C13.2779 78.217 13.5727 77.8281 13.5727 77.8281C13.5727 77.8281 14.1951 77.2772 14.3262 76.1429H14.9486V80.2262H1.91088V79.2864H2.92638V67.069C2.92638 67.069 2.9919 65.8051 2.76259 63.7959C2.76259 63.7959 2.63156 62.3051 0.141951 62.694L0 62.6616V62.0027H8.6918V62.694C8.6918 62.694 6.07115 62.4996 5.87461 63.7311C5.87461 63.7311 5.51427 64.8005 5.54703 67.069Z" fill="white"/>
<path d="M97.2846 67.069V79.2864H99.8725C99.8725 79.2864 102.395 79.1244 103.705 78.6707C105.016 78.217 105.31 77.8281 105.31 77.8281C105.31 77.8281 105.933 77.2772 106.064 76.1429H106.686V80.2262H93.6485V79.2864H94.664V67.069C94.664 67.069 94.7295 65.8051 94.5002 63.7959C94.5002 63.7959 94.3692 62.3051 91.8796 62.694L91.7376 62.6616V62.0027H100.429V62.694C100.429 62.694 97.8088 62.4996 97.6122 63.7311C97.6122 63.7311 97.2519 64.8005 97.2846 67.069Z" fill="white"/>
<path d="M33.655 62.0134H19.0121V62.6616C19.0121 62.6616 21.5673 62.3051 21.7966 63.9254C22.0259 65.5458 22.0586 66.7124 22.0586 66.7124V75.754C22.0586 75.754 22.0586 79.0919 21.1742 79.3836C20.2897 79.6753 18.9794 79.6428 18.9794 79.6428V80.3558H34.8015V76.2077H34.0808C34.0808 76.2077 34.1791 77.8929 32.4102 78.5086C30.6412 79.1243 28.512 79.2864 28.512 79.2864L26.5137 79.3836C26.5137 79.3836 24.8758 79.7401 24.712 77.8605C24.5482 75.9809 24.5482 71.5087 24.5482 71.5087H31.0671V70.5689H24.581V62.9532C24.581 62.9532 28.2499 62.9208 30.2481 63.4393C32.2464 63.9578 32.9671 64.5088 32.9671 66.0319H33.655C33.655 66.0319 33.5567 62.0134 33.655 62.0134Z" fill="white"/>
<path d="M223.339 79.4094C222.845 79.3916 222.024 79.1628 221.911 77.8605C221.747 75.9809 221.747 71.5087 221.747 71.5087H228.266V70.5689H221.78V62.9532C221.78 62.9532 225.449 62.9208 227.447 63.4393C229.445 63.9578 230.166 64.5088 230.166 66.0319H230.854C230.854 66.0319 230.755 62.0134 230.854 62.0134H216.211V62.6616C216.211 62.6616 218.766 62.3051 218.995 63.9254C219.224 65.5458 219.257 66.7124 219.257 66.7124V75.754C219.257 75.754 219.257 79.0919 218.373 79.3836C217.488 79.6753 216.178 79.6428 216.178 79.6428V80.3558H232V76.2077H231.279C231.279 76.2077 231.378 77.8929 229.609 78.5086C227.84 79.1243 225.711 79.2864 225.711 79.2864L223.959 79.3716L223.339 79.4094Z" fill="white"/>
<path d="M129.506 79.4094C129.013 79.3916 128.192 79.1628 128.078 77.8605C127.914 75.9809 127.914 71.5087 127.914 71.5087H134.433V70.5689H127.947V62.9532C127.947 62.9532 131.616 62.9208 133.614 63.4393C135.612 63.9578 136.333 64.5088 136.333 66.0319H137.021C137.021 66.0319 136.923 62.0134 137.021 62.0134H122.378V62.6616C122.378 62.6616 124.933 62.3051 125.163 63.9254C125.392 65.5458 125.425 66.7124 125.425 66.7124V75.754C125.425 75.754 125.425 79.0919 124.54 79.3836C123.656 79.6753 122.345 79.6428 122.345 79.6428V80.3558H138.168V76.2077H137.447C137.447 76.2077 137.545 77.8929 135.776 78.5086C134.007 79.1243 131.878 79.2864 131.878 79.2864L130.127 79.3716L129.506 79.4094Z" fill="white"/>
<path d="M72.3751 71.8329V66.745C72.3751 66.745 72.4733 65.87 72.6699 64.1524C72.8664 62.4348 75.3888 62.6293 75.3888 62.6293V61.9811H70.1803L62.3511 72.0273L53.703 61.9487H49.51V62.5645C49.51 62.5645 49.1824 62.4996 51.0168 62.5645C52.8513 62.6293 53.0151 65.4811 53.0151 65.4811V79.4161H50.3944V80.1939C50.3453 80.2425 56.946 80.1615 56.946 80.1615V79.3837H54.0306V65.3515L61.8597 74.3282L69.8527 64.0552V71.8329V73.1292V75.2098C69.8199 77.4782 69.5906 78.1912 69.3613 78.9042C69.132 79.6171 66.9045 79.5847 66.9045 79.5847V80.2977H75.3888V79.5199C75.3888 79.5199 74.275 79.5847 73.2923 79.1958C72.3095 78.8069 72.3751 75.2422 72.3751 75.2422V73.2264V71.8329Z" fill="white"/>
<path d="M79.9749 62.1431V62.8885H82.1697V76.629H79.9422V77.4068H86.7558V76.6615H84.6266V62.9209H86.7886V62.1755C86.7886 62.1755 79.9749 62.1107 79.9749 62.1431Z" fill="white"/>
<path d="M111.412 62.1106V62.856H113.607V76.5966H111.379V77.3743H118.193V76.629H116.063V62.8884H118.225V62.143C118.225 62.143 111.412 62.0782 111.412 62.1106Z" fill="white"/>
<path d="M204.28 80.5587C202.569 80.2879 200.357 80.0777 198.941 78.7827C198.97 77.3149 199.102 75.8568 199.371 74.424C199.62 74.3381 199.866 74.532 200.158 74.4616C199.895 77.8907 202.761 80.0989 206.071 79.5437C207.15 79.3881 208.451 78.9314 209.106 78.0878C209.701 77.1716 209.857 75.8204 209.24 74.8792C207.704 72.7756 204.844 72.2085 202.757 70.7987C201.12 69.9919 199.295 68.6914 199.076 66.7547C198.732 65.1372 199.728 63.4903 201.152 62.7056C204.149 61.0809 207.965 61.5646 211.037 62.7942C211.056 64.4028 210.802 66.0036 210.54 67.5716C210.291 67.5137 210.03 67.4532 209.753 67.3889C209.792 66.8303 209.678 66.313 209.618 65.7691C208.901 62.9142 205.181 61.7796 202.759 63.2653C200.649 64.5514 201.331 67.1288 203.217 68.2651C206.038 70.1452 211.459 71.1212 211.984 74.9779C212.615 78.8164 208.891 80.2454 205.766 80.5587C205.271 80.5587 204.775 80.5587 204.28 80.5587Z" fill="white"/>
<path d="M190.861 71.0413C190.861 75.5591 187.709 79.2215 183.822 79.2215C179.935 79.2215 176.783 75.5591 176.783 71.0413C176.783 66.5234 179.935 62.861 183.822 62.861C187.709 62.861 190.861 66.5234 190.861 71.0413ZM183.823 61.6245C178.537 61.6245 174.252 65.8557 174.252 71.0752C174.252 76.2947 178.537 80.5259 183.823 80.5259C189.109 80.5259 193.394 76.2947 193.394 71.0752C193.394 65.8557 189.109 61.6245 183.823 61.6245Z" fill="white"/>
<path d="M160.723 62.8886C162.754 62.8886 163.868 63.7311 163.868 63.7311C164.818 64.3145 166.128 66.583 164.556 68.819C162.525 70.6987 159.872 70.407 159.872 70.407H158.332V62.921C158.332 62.921 158.692 62.8886 160.723 62.8886ZM167.504 64.4117C166.915 63.5367 166.26 63.1478 166.26 63.1478C166.26 63.1478 164.523 62.1108 162.001 61.9812C159.479 61.8515 158.299 61.9163 158.299 61.9163H152.862V62.5969C152.862 62.5969 155.056 62.4997 155.417 63.3423C155.777 64.1848 155.777 65.1246 155.777 65.1246V75.9162C155.777 75.9162 155.974 78.9948 154.958 79.3189C153.943 79.643 152.96 79.5782 152.96 79.5782V80.2587H161.313V79.643C161.313 79.643 159.118 79.5782 158.856 79.0273C158.594 78.4763 158.332 77.3421 158.332 76.0134C158.332 74.6847 158.332 71.3468 158.332 71.3468C158.332 71.3468 160.068 71.1848 161.935 72.9347C163.803 74.6847 165.899 78.4115 165.899 78.4115C165.899 78.4115 166.751 79.9671 168.291 80.2587H172.877V79.643C172.877 79.643 170.747 79.6106 169.437 78.4439C168.127 77.2773 166.784 75.106 166.784 75.106C166.784 75.106 164.491 71.8653 163.016 71.2172C163.016 71.2172 165.735 70.569 166.718 69.4348C167.274 68.7932 167.726 68.0121 167.934 67.1935C168.171 66.2651 168.095 65.2884 167.504 64.4117Z" fill="white"/>
<path d="M155.696 37.2495C154.402 37.7476 153.09 38.0984 151.771 38.1634C150.449 38.2108 149.159 37.9528 147.945 37.5026C145.504 36.5939 143.402 34.8959 141.442 33.0837C139.481 31.2421 137.608 29.2778 135.808 27.216C134.901 26.1864 134 25.1384 133.044 24.1276C133.021 24.1036 132.997 24.0814 132.974 24.0575C133.008 24.0422 133.042 24.0289 133.076 24.0135L133.919 23.6118L134.736 23.2072C135.293 22.9324 135.84 22.6503 136.385 22.3612C138.564 21.2101 140.66 19.9157 142.707 18.5275C143.726 17.8261 144.712 17.0734 145.677 16.2863C146.64 15.4979 147.579 14.6679 148.454 13.7588C149.331 12.853 150.165 11.8856 150.892 10.8082C151.611 9.73059 152.234 8.52952 152.546 7.17134L152.654 6.66075C152.678 6.48632 152.691 6.30838 152.708 6.13243C152.753 5.77179 152.738 5.44524 152.735 5.11131C152.704 4.43859 152.627 3.74842 152.396 3.0515C152.164 2.36068 151.771 1.65356 151.171 1.11557C150.575 0.573405 149.822 0.253453 149.105 0.114006C147.652 -0.160797 146.32 0.102571 145.09 0.465071C143.858 0.84012 142.705 1.35775 141.609 1.9692C141.061 2.27562 140.526 2.60508 140.013 2.97288C139.524 3.34771 139.018 3.69915 138.538 4.08151C138.063 4.47032 137.573 4.83958 137.118 5.24896C136.651 5.64406 136.184 6.03863 135.74 6.4571C133.936 8.10195 132.232 9.84044 130.587 11.6284C128.751 13.6324 126.946 15.6623 125.177 17.7226C124.513 17.2834 123.845 16.8485 123.165 16.4279C121.981 15.6905 120.758 14.9918 119.427 14.4441C119.371 14.4214 119.313 14.4009 119.256 14.3788L120.205 11.4837C120.595 10.2827 121.037 9.05759 121.25 7.72467C121.35 7.05811 121.422 6.36841 121.278 5.60489C121.2 5.22702 121.047 4.80868 120.726 4.4464C120.408 4.07792 119.915 3.86565 119.487 3.80733C119.052 3.74383 118.656 3.78998 118.29 3.85632C117.934 3.9231 117.595 4.02456 117.264 4.13698C116.603 4.3658 115.986 4.66214 115.396 4.99191C114.806 5.32284 114.243 5.68918 113.702 6.08598C113.432 6.2831 113.171 6.52301 112.907 6.74101L112.187 7.39873C111.237 8.27793 110.314 9.16689 109.39 10.0579L103.899 15.4391C103.715 15.6221 103.534 15.8065 103.35 15.9896C104.599 14.0669 105.834 12.1361 107.041 10.1824L107.153 10.0013L107.184 9.82399C107.235 9.52353 107.252 9.33128 107.251 9.08207C107.254 8.84588 107.237 8.60315 107.186 8.34682C107.147 8.09637 107.047 7.82414 106.934 7.56176C106.779 7.2934 106.619 7.02883 106.362 6.8133C106.132 6.57098 105.839 6.45248 105.557 6.31018C105.29 6.23265 104.996 6.15047 104.743 6.13079C104.499 6.12431 104.241 6.1113 104.009 6.12862L103.356 6.22778C102.943 6.31725 102.558 6.43609 102.182 6.56298C101.827 6.70875 101.457 6.84234 101.116 7.00196L100.111 7.49817L99.1553 8.03861C97.1693 9.17584 95.3585 10.5375 93.647 11.9904C94.536 10.2541 95.0825 8.39748 95.2437 6.45827C95.3185 5.40322 95.2617 4.30534 94.8882 3.24483C94.6986 2.71884 94.4202 2.20642 94.036 1.76856C93.6554 1.32856 93.1667 0.977181 92.641 0.750007C91.5849 0.288252 90.4446 0.250323 89.413 0.377002C88.8974 0.449515 88.377 0.479418 87.8685 0.588187C87.3626 0.707739 86.8482 0.78806 86.3524 0.94077C82.3587 2.08761 78.8963 4.75448 76.8057 8.20126C79.1349 4.91323 82.6762 2.53499 86.5379 1.6416C87.0171 1.51678 87.5134 1.46376 87.9985 1.37079C88.4862 1.28858 88.9853 1.28427 89.4765 1.23649C90.4526 1.15719 91.4135 1.25973 92.2076 1.65241C93.0075 2.03254 93.5425 2.7563 93.7994 3.60718C94.0668 4.45802 94.0941 5.411 93.9908 6.34929C93.7718 8.2285 93.1058 10.1127 92.1279 11.723C91.6249 12.5339 91.0208 13.3002 90.3899 14.0691L88.4622 16.3925L80.7333 25.7031L82.2337 26.9493C85.9952 22.7681 89.6197 18.5171 93.7249 14.8346C95.7772 13.0069 97.9329 11.2925 100.288 9.96269L101.171 9.46856L102.06 9.03497C102.357 8.89794 102.653 8.79683 102.948 8.67386C103.237 8.5791 103.53 8.49153 103.803 8.43222C104.358 8.30095 104.816 8.39376 104.812 8.47207C104.838 8.47455 104.844 8.5227 104.877 8.54908C104.89 8.61241 104.925 8.66364 104.936 8.76088C104.954 8.84526 104.964 8.95394 104.96 9.06537C104.962 9.10643 104.959 9.15669 104.955 9.20506C103.138 12.1517 101.282 15.0922 99.3712 17.9793C98.3914 19.4532 97.403 20.9231 96.374 22.3478C96.1208 22.709 95.8589 23.0586 95.5967 23.4078C95.3364 23.7601 95.0741 24.1089 94.8025 24.4404C94.5419 24.7719 94.2797 25.0965 94.0118 25.3924C93.6998 25.7087 93.3869 26.0239 93.0749 26.3402L94.5237 27.9294L94.6403 27.8243L94.6408 27.8248L94.6474 27.8179L95.1176 27.3946C95.3251 27.2124 95.4512 27.0407 95.6217 26.8629C95.8211 26.6513 96.0038 26.4372 96.1813 26.2223L105.273 16.7645L110.607 11.2582C111.502 10.3492 112.399 9.43952 113.306 8.5562L113.986 7.9008C114.212 7.70669 114.416 7.50415 114.657 7.31568C115.136 6.93716 115.638 6.58446 116.156 6.2689C116.674 5.95419 117.211 5.67452 117.757 5.46327C118.299 5.25426 118.892 5.09352 119.299 5.13901C119.503 5.1648 119.639 5.21859 119.75 5.33099C119.86 5.44459 119.96 5.63458 120.018 5.87616C120.133 6.36413 120.113 6.96561 120.042 7.55556C119.895 8.74883 119.522 9.95163 119.185 11.1886L118.385 14.074C117.337 13.7562 116.209 13.5887 115.041 13.7473C114.269 13.8612 113.494 14.1111 112.815 14.5198C112.649 14.6257 112.484 14.7336 112.321 14.8453L111.864 15.2121C111.59 15.4901 111.311 15.7649 111.062 16.0654C110.598 16.6957 110.187 17.3852 109.986 18.1451C109.739 18.8936 109.728 19.6814 109.759 20.4398C109.845 21.1955 110.016 21.9369 110.327 22.6145C110.597 23.3093 111.023 23.9249 111.475 24.4984C112.41 25.6212 113.699 26.4695 115.093 26.7591L115.15 26.5863C113.923 25.9692 112.953 25.0266 112.269 23.9328C111.607 22.8258 111.208 21.5861 111.182 20.3647C111.186 19.1462 111.575 17.9854 112.33 17.0754C113.108 16.1631 114.141 15.4905 115.313 15.2368C116.179 15.037 117.124 15.0421 118.077 15.1877C117.429 17.542 116.758 19.8783 116.166 22.2593C115.898 23.5103 115.701 24.8355 116.01 26.1202C116.061 26.3315 116.135 26.5371 116.219 26.7383C115.864 26.696 115.51 26.6425 115.158 26.5647L115.086 26.7807C115.527 26.9601 115.987 27.0922 116.452 27.2026C116.586 27.4286 116.737 27.6438 116.92 27.8322C116.996 27.9117 117.08 27.981 117.162 28.0522C117.047 28.2197 116.93 28.3866 116.816 28.5543L114.761 31.5205C114.077 32.5069 113.39 33.4878 112.681 34.4514C111.963 35.4064 111.261 36.3737 110.51 37.3007C109.768 38.2356 108.993 39.1403 108.202 40.0345L106.98 41.3328C106.58 41.7363 106.135 42.1015 105.649 42.3764C105.167 42.6577 104.638 42.8492 104.104 42.8245C103.576 42.795 103.057 42.5112 102.674 42.0638L102.487 42.1959C102.8 42.7278 103.339 43.2128 104.026 43.3548C104.707 43.4876 105.402 43.3457 106.002 43.0914C106.611 42.839 107.159 42.4903 107.666 42.0932C108.157 41.697 108.607 41.2957 109.071 40.8859C109.976 40.0561 110.861 39.1995 111.684 38.2917C112.524 37.3964 113.325 36.4708 114.095 35.5227C114.863 34.5737 115.618 33.6161 116.348 32.6442L118.488 29.7019C119.007 28.9821 119.511 28.2556 120.017 27.53C120.834 27.5094 121.65 27.4417 122.457 27.3226C123.69 27.1488 124.908 26.8879 126.103 26.5586C127.3 26.2326 128.483 25.861 129.642 25.4267C130.296 25.1835 130.945 24.9254 131.59 24.6573C131.701 24.7967 131.811 24.9359 131.922 25.0754L134.469 28.3117C136.186 30.4831 138.01 32.6203 140.111 34.5112C141.158 35.4606 142.3 36.333 143.523 37.0957C144.737 37.8679 146.081 38.493 147.506 38.8674C148.926 39.2421 150.439 39.3589 151.878 39.0874C153.316 38.8087 154.632 38.1922 155.786 37.4081L155.696 37.2495ZM131.145 12.1167C132.726 10.3033 134.416 8.58071 136.256 7.03537C137.168 6.25347 138.13 5.53331 139.117 4.85693C139.608 4.51392 140.122 4.20695 140.625 3.88663C141.125 3.58669 141.648 3.32078 142.182 3.07672C143.251 2.59272 144.368 2.20456 145.488 1.96567C146.599 1.73456 147.752 1.63968 148.688 1.89127C149.628 2.14701 150.199 2.72246 150.453 3.64749C150.69 4.55867 150.69 5.73464 150.435 6.66713C150.174 7.65259 149.644 8.61883 148.995 9.52347C148.345 10.4317 147.572 11.2847 146.743 12.0925C145.077 13.7035 143.23 15.1862 141.287 16.5514C139.365 17.947 137.338 19.2188 135.286 20.4447C134.773 20.7498 134.255 21.0496 133.737 21.3368L132.943 21.7788L132.161 22.199C131.934 22.3197 131.702 22.4332 131.473 22.5511C130.997 22.0994 130.512 21.6561 130.015 21.2265C128.959 20.3077 127.805 19.4727 126.653 18.7076C126.534 18.6278 126.414 18.5489 126.296 18.469C127.824 16.2821 129.397 14.1292 131.145 12.1167ZM116.263 26.0681C116.059 24.839 116.311 23.5811 116.642 22.3747C116.99 21.1654 117.432 19.9559 117.823 18.7467L118.935 15.3568C118.992 15.3702 119.049 15.3817 119.106 15.396C120.404 15.7203 121.664 16.275 122.862 16.9323C123.532 17.3048 124.179 17.7176 124.813 18.1513C123.545 19.6374 122.292 21.1364 121.075 22.663C120.01 24.0233 118.999 25.4152 118.016 26.8192C117.496 26.8318 116.975 26.8119 116.456 26.7609C116.372 26.5355 116.304 26.3044 116.263 26.0681ZM117.017 27.7476C116.888 27.5957 116.782 27.4299 116.685 27.2588C116.988 27.3234 117.293 27.3758 117.6 27.4164C117.474 27.5982 117.349 27.7804 117.224 27.9626C117.153 27.8922 117.08 27.8241 117.017 27.7476ZM128.952 23.7716C126.775 24.7438 124.538 25.6001 122.23 26.1819C121.734 26.3022 121.236 26.4102 120.735 26.5055C121.364 25.5946 121.99 24.6833 122.62 23.7785C123.742 22.185 124.837 20.5665 125.951 18.9618C126.064 19.0446 126.177 19.1258 126.289 19.2095C127.404 20.0208 128.393 20.9349 129.312 21.9392C129.667 22.3223 130.007 22.7186 130.342 23.1194C129.882 23.3426 129.42 23.5626 128.952 23.7716Z" fill="url(#paint0_linear)"/>
<path d="M71.8203 100.165C71.8203 100.23 71.7976 100.282 71.7526 100.32C71.7077 100.358 71.6589 100.376 71.6069 100.376H70.8106C70.7586 100.376 70.7098 100.358 70.6649 100.32C70.62 100.282 70.5972 100.23 70.5972 100.165L70.6285 97.0916C70.6285 97.0401 70.6086 96.9961 70.5689 96.9605C70.5286 96.924 70.4827 96.9062 70.4307 96.9062H66.7876C66.7356 96.9062 66.6911 96.9259 66.6551 96.9652C66.6182 97.005 66.6003 97.0504 66.6003 97.1019L66.6315 100.165C66.6315 100.23 66.6088 100.282 66.5638 100.32C66.5189 100.358 66.4702 100.376 66.4181 100.376H65.6218C65.5731 100.376 65.5253 100.358 65.479 100.32C65.4316 100.282 65.4085 100.23 65.4085 100.165L65.4865 93.019C65.4865 92.9605 65.5102 92.909 65.5565 92.8645C65.6039 92.8201 65.6616 92.7976 65.7311 92.7976H66.314C66.3798 92.7976 66.4366 92.8201 66.4829 92.8645C66.5302 92.909 66.5534 92.9605 66.5534 93.019L66.5846 95.6808C66.5846 95.722 66.6036 95.7604 66.6419 95.7969C66.6802 95.8325 66.7252 95.8507 66.7772 95.8507H70.4567C70.5017 95.8507 70.5443 95.8325 70.584 95.7969C70.6242 95.7604 70.6441 95.7187 70.6441 95.6705L70.6753 93.019C70.6753 92.9605 70.6985 92.909 70.7458 92.8645C70.7922 92.8201 70.8504 92.7976 70.9199 92.7976H71.5028C71.5686 92.7976 71.6249 92.8201 71.6722 92.8645C71.7186 92.909 71.7422 92.9605 71.7422 93.019L71.8203 100.165Z" fill="white"/>
<path d="M80.3024 92.6895C80.653 92.6895 80.9894 92.7349 81.3121 92.8257C81.6347 92.9169 81.9357 93.0456 82.2153 93.2123C82.4944 93.3784 82.7494 93.5792 82.9798 93.8142C83.2107 94.0496 83.4076 94.3085 83.5708 94.5921C83.734 94.8748 83.8599 95.1804 83.9479 95.5086C84.0368 95.8362 84.0808 96.1769 84.0808 96.5303C84.0808 97.0831 83.9852 97.6003 83.7946 98.0829C83.6039 98.565 83.3394 98.9843 83.0007 99.3415C82.6629 99.6986 82.2612 99.979 81.7961 100.184C81.331 100.388 80.8248 100.49 80.2764 100.49C79.7385 100.49 79.2398 100.388 78.7804 100.184C78.3205 99.979 77.9212 99.6986 77.5834 99.3415C77.2446 98.9843 76.9797 98.5668 76.7866 98.0875C76.5945 97.6092 76.498 97.0934 76.498 96.5406C76.498 96.1835 76.5425 95.8404 76.6305 95.5109C76.7194 95.1814 76.8458 94.8743 77.0109 94.5893C77.1755 94.3043 77.3723 94.0454 77.6013 93.8119C77.8303 93.5783 78.0863 93.3784 78.3688 93.2123C78.6517 93.0456 78.9564 92.9169 79.2824 92.8257C79.6083 92.7349 79.9485 92.6895 80.3024 92.6895ZM80.2896 99.4238C80.5532 99.4238 80.8016 99.3817 81.0344 99.2979C81.2671 99.2137 81.4796 99.1 81.6726 98.9558C81.8652 98.8116 82.0374 98.6445 82.1883 98.454C82.3392 98.264 82.467 98.0613 82.5711 97.8474C82.6752 97.6331 82.7551 97.4135 82.8109 97.1889C82.8663 96.9642 82.8942 96.7475 82.8942 96.5383C82.8942 96.3323 82.8682 96.1189 82.8161 95.8975C82.7641 95.6766 82.6865 95.4613 82.5843 95.2521C82.4816 95.0428 82.3558 94.8449 82.2063 94.6581C82.0572 94.4713 81.886 94.3075 81.6934 94.1666C81.5008 94.0262 81.287 93.9148 81.0528 93.8325C80.8181 93.7501 80.5636 93.7089 80.2896 93.7089C80.0115 93.7089 79.7536 93.7501 79.5156 93.8325C79.2776 93.9148 79.0624 94.0272 78.8698 94.1694C78.6772 94.3117 78.506 94.476 78.3564 94.6633C78.2074 94.85 78.082 95.048 77.9817 95.2572C77.881 95.4664 77.8043 95.6808 77.7523 95.9003C77.7002 96.1198 77.6742 96.3323 77.6742 96.5383C77.6742 96.7578 77.7012 96.9806 77.7551 97.2067C77.8086 97.4332 77.8876 97.6537 77.9921 97.868C78.0962 98.0819 78.223 98.2837 78.3721 98.4723C78.5216 98.6609 78.6933 98.8252 78.8878 98.9661C79.0827 99.1065 79.297 99.2184 79.5312 99.3003C79.7659 99.3827 80.0185 99.4238 80.2896 99.4238Z" fill="white"/>
<path d="M94.3585 93.6719C94.3585 93.7239 94.3405 93.7679 94.3036 93.8039C94.2677 93.84 94.2251 93.8601 94.1764 93.8634H92.053C91.9938 93.8634 91.9465 93.8807 91.9096 93.9149C91.8737 93.949 91.8552 93.9921 91.8552 94.0436L91.9229 100.165C91.9229 100.231 91.9001 100.282 91.8552 100.32C91.8103 100.358 91.7615 100.376 91.7095 100.376H90.9132C90.8612 100.376 90.8124 100.358 90.7675 100.32C90.7225 100.282 90.6998 100.231 90.6998 100.165L90.7675 94.0487C90.7675 94.0038 90.7509 93.9621 90.7183 93.9228C90.6852 93.883 90.6393 93.8634 90.5801 93.8634H88.514C88.469 93.8634 88.4274 93.8461 88.3891 93.8114C88.3508 93.7773 88.3318 93.7304 88.3318 93.6719L88.3422 92.9736C88.3422 92.9216 88.3631 92.8795 88.4047 92.8468C88.4463 92.814 88.488 92.7976 88.5296 92.7976H94.1556C94.2043 92.7976 94.2483 92.814 94.2885 92.8468C94.3282 92.8795 94.3481 92.9216 94.3481 92.9736L94.3585 93.6719Z" fill="white"/>
<path d="M104.251 100.165C104.251 100.217 104.23 100.265 104.188 100.309C104.147 100.354 104.096 100.376 104.037 100.376H99.0671C99.0151 100.376 98.9664 100.358 98.9214 100.32C98.8765 100.282 98.8538 100.23 98.8538 100.165L98.9318 93.019C98.9318 92.9605 98.955 92.909 99.0023 92.8645C99.0487 92.8201 99.1069 92.7976 99.1764 92.7976H103.918C103.963 92.7976 104.006 92.8168 104.048 92.8547C104.089 92.8926 104.11 92.9357 104.11 92.9839L104.126 93.6616C104.126 93.7272 104.107 93.7763 104.069 93.8091C104.03 93.8418 103.987 93.8601 103.938 93.8634H100.196C100.141 93.8666 100.096 93.8863 100.061 93.9223C100.027 93.9584 100.009 94.0057 100.009 94.0637L100.03 95.6659C100.03 95.7136 100.047 95.7567 100.082 95.7941C100.117 95.832 100.16 95.8507 100.212 95.8507H103.605C103.657 95.8507 103.701 95.8704 103.738 95.9102C103.774 95.9495 103.793 95.9916 103.793 96.0361L103.808 96.726C103.808 96.7705 103.789 96.8117 103.751 96.8496C103.713 96.8875 103.67 96.9062 103.621 96.9062H100.243C100.188 96.9062 100.141 96.924 100.103 96.9605C100.064 96.9961 100.046 97.0452 100.046 97.107L100.066 99.0429C100.066 99.0874 100.085 99.1276 100.121 99.1641C100.158 99.1997 100.2 99.2179 100.249 99.2179H104.017C104.069 99.2179 104.117 99.2325 104.162 99.2615C104.207 99.291 104.233 99.3396 104.24 99.4084L104.251 100.165Z" fill="white"/>
<path d="M114.279 100.16C114.279 100.219 114.258 100.269 114.216 100.312C114.175 100.355 114.128 100.376 114.076 100.376H109.236C109.183 100.376 109.135 100.358 109.09 100.32C109.045 100.282 109.022 100.23 109.022 100.165L109.1 93.019C109.1 92.9605 109.123 92.909 109.171 92.8645C109.217 92.8201 109.275 92.7976 109.345 92.7976H109.928C109.993 92.7976 110.05 92.8201 110.097 92.8645C110.143 92.909 110.167 92.9605 110.167 93.019L110.235 99.048C110.235 99.0925 110.254 99.1332 110.292 99.1688C110.33 99.2053 110.372 99.2231 110.417 99.2231H114.091C114.136 99.2231 114.177 99.2404 114.213 99.2746C114.25 99.3087 114.268 99.3499 114.268 99.3981L114.279 100.16Z" fill="white"/>
<path d="M128.918 92.8613C129.245 92.8613 129.553 92.9154 129.844 93.023C130.135 93.1306 130.391 93.2828 130.61 93.4811C130.829 93.6784 131.004 93.9184 131.133 94.199C131.263 94.4806 131.328 94.7945 131.328 95.1416C131.328 95.4921 131.263 95.8104 131.133 96.097C131.004 96.3831 130.826 96.6295 130.599 96.8362C130.373 97.0425 130.104 97.2022 129.792 97.3152C129.479 97.4278 129.142 97.4843 128.781 97.4843H126.808C126.755 97.4843 126.711 97.5026 126.673 97.5388C126.637 97.5755 126.618 97.6196 126.618 97.6717L126.644 100.311C126.644 100.374 126.622 100.425 126.576 100.465C126.531 100.505 126.482 100.525 126.429 100.525H125.624C125.571 100.525 125.522 100.506 125.477 100.467C125.431 100.429 125.408 100.377 125.408 100.311L125.487 93.0854C125.487 93.0264 125.511 92.9744 125.558 92.9288C125.605 92.8841 125.664 92.8613 125.734 92.8613H128.918ZM128.892 96.4222C129.092 96.4222 129.272 96.392 129.434 96.3315C129.595 96.271 129.733 96.1843 129.847 96.0717C129.961 95.9592 130.048 95.8248 130.11 95.6691C130.171 95.5129 130.202 95.3399 130.202 95.1495C130.202 94.9591 130.171 94.7885 130.108 94.6378C130.044 94.4871 129.955 94.3597 129.839 94.256C129.723 94.1519 129.584 94.0731 129.423 94.0195C129.262 93.966 129.085 93.9392 128.892 93.9392H126.776C126.717 93.9392 126.668 93.9571 126.631 93.9938C126.595 94.03 126.576 94.0756 126.576 94.1311L126.602 96.2403C126.602 96.2889 126.619 96.3315 126.652 96.3677C126.686 96.4039 126.731 96.4222 126.787 96.4222H128.892Z" fill="white"/>
<path d="M141.411 100.254C141.425 100.292 141.427 100.328 141.416 100.36C141.406 100.394 141.388 100.421 141.364 100.444C141.339 100.467 141.311 100.485 141.28 100.499C141.248 100.513 141.218 100.521 141.19 100.525H140.338C140.295 100.525 140.253 100.511 140.211 100.483C140.169 100.455 140.145 100.422 140.138 100.384L139.496 98.4997C139.461 98.4025 139.395 98.3539 139.301 98.3539H136.601C136.514 98.3539 136.45 98.399 136.412 98.4888L135.733 100.405C135.705 100.478 135.645 100.518 135.554 100.525H134.712C134.624 100.525 134.556 100.499 134.507 100.446C134.458 100.395 134.454 100.318 134.496 100.217L137.233 92.9912C137.264 92.905 137.327 92.8613 137.422 92.8613H138.448C138.546 92.8613 138.619 92.9119 138.664 93.0121L141.411 100.254ZM138.953 97.042L138.122 94.6418C138.104 94.5932 138.079 94.557 138.046 94.5322C138.013 94.5084 137.978 94.495 137.94 94.4935C137.904 94.4916 137.869 94.503 137.835 94.5273C137.802 94.5515 137.777 94.5897 137.759 94.6418L136.938 97.042C136.917 97.101 136.927 97.1466 136.967 97.1798C137.007 97.2126 137.057 97.2294 137.117 97.2294H138.775C138.831 97.2294 138.88 97.2121 138.922 97.1769C138.964 97.1427 138.974 97.0975 138.953 97.042Z" fill="white"/>
<path d="M152.184 100.119C152.222 100.157 152.243 100.199 152.247 100.246C152.25 100.293 152.242 100.337 152.221 100.379C152.2 100.42 152.169 100.455 152.131 100.483C152.092 100.511 152.05 100.525 152.005 100.525H151.221C151.144 100.525 151.069 100.506 150.997 100.47C150.925 100.433 150.868 100.386 150.826 100.327L148.648 97.5467C148.609 97.5051 148.566 97.4843 148.521 97.4843H147.242C147.19 97.4843 147.145 97.5026 147.108 97.5388C147.071 97.5755 147.053 97.6196 147.053 97.6717L147.079 100.311C147.079 100.377 147.056 100.429 147.011 100.467C146.965 100.506 146.916 100.525 146.863 100.525H146.059C146.005 100.525 145.956 100.506 145.911 100.467C145.865 100.429 145.843 100.377 145.843 100.311L145.921 93.0854C145.921 93.0264 145.945 92.9744 145.992 92.9288C146.04 92.8841 146.099 92.8613 146.169 92.8613H149.358C149.684 92.8613 149.993 92.9154 150.284 93.023C150.575 93.1306 150.83 93.2828 151.05 93.4811C151.269 93.6784 151.443 93.9184 151.571 94.199C151.699 94.4806 151.763 94.7945 151.763 95.1416C151.763 95.4921 151.705 95.7965 151.589 96.0553C151.473 96.3137 151.33 96.5313 151.16 96.7088C150.99 96.8853 150.807 97.0271 150.61 97.1327C150.414 97.2388 150.236 97.3162 150.079 97.3643C150.037 97.3821 150.011 97.4124 150.002 97.4555C149.994 97.4991 150.005 97.5398 150.037 97.578L152.184 100.119ZM149.331 96.4222C149.532 96.4222 149.712 96.392 149.874 96.3315C150.035 96.271 150.172 96.1843 150.284 96.0717C150.396 95.9592 150.483 95.8248 150.545 95.6691C150.606 95.5129 150.636 95.3384 150.636 95.144C150.636 94.9537 150.605 94.7841 150.542 94.6353C150.479 94.4861 150.389 94.3597 150.273 94.256C150.158 94.1519 150.019 94.0731 149.858 94.0195C149.696 93.966 149.519 93.9392 149.326 93.9392H147.2C147.151 93.9392 147.107 93.9581 147.069 93.9962C147.03 94.0344 147.011 94.0795 147.011 94.1311L147.037 96.2403C147.037 96.2889 147.054 96.3315 147.087 96.3677C147.121 96.4039 147.163 96.4222 147.216 96.4222H149.331Z" fill="white"/>
<path d="M157.178 100.311L157.257 93.0854C157.257 93.0264 157.281 92.9744 157.328 92.9288C157.376 92.8841 157.434 92.8613 157.505 92.8613H158.094C158.161 92.8613 158.218 92.8841 158.265 92.9288C158.312 92.9744 158.336 93.0264 158.336 93.0854L158.415 100.311C158.415 100.377 158.392 100.429 158.347 100.467C158.301 100.506 158.252 100.525 158.199 100.525H157.394C157.342 100.525 157.292 100.506 157.246 100.467C157.201 100.429 157.178 100.377 157.178 100.311Z" fill="white"/>
<path d="M169.677 98.3796C169.673 98.6816 169.632 98.9468 169.553 99.1759C169.474 99.405 169.363 99.6033 169.222 99.7699C169.079 99.9365 168.911 100.076 168.716 100.189C168.521 100.301 168.308 100.391 168.077 100.457C167.845 100.523 167.599 100.57 167.338 100.597C167.076 100.625 166.809 100.639 166.535 100.639C166.331 100.639 166.116 100.624 165.888 100.592C165.66 100.561 165.432 100.509 165.204 100.436C164.976 100.363 164.754 100.269 164.538 100.152C164.322 100.036 164.127 99.8929 163.951 99.7228C163.776 99.5527 163.627 99.3539 163.507 99.1268C163.385 98.8992 163.304 98.6399 163.262 98.3484C163.255 98.2825 163.268 98.221 163.301 98.1635C163.335 98.1064 163.397 98.0777 163.488 98.0777H164.283C164.321 98.0777 164.363 98.0931 164.409 98.1248C164.454 98.1555 164.482 98.1907 164.493 98.2289C164.546 98.4679 164.645 98.6732 164.791 98.8427C164.936 99.0133 165.104 99.1511 165.296 99.2567C165.487 99.3628 165.689 99.4402 165.904 99.4883C166.117 99.5374 166.321 99.5617 166.514 99.5617C166.63 99.5617 166.755 99.5547 166.89 99.5408C167.025 99.5269 167.16 99.5041 167.296 99.4729C167.43 99.4417 167.56 99.399 167.685 99.3455C167.809 99.2914 167.92 99.224 168.016 99.1422C168.113 99.0609 168.19 98.9647 168.248 98.8536C168.306 98.7426 168.335 98.6137 168.335 98.4679C168.331 98.2671 168.276 98.0995 168.169 97.9656C168.062 97.8323 167.916 97.7182 167.73 97.625C167.544 97.5308 167.324 97.447 167.072 97.3722C166.819 97.2978 166.545 97.217 166.251 97.1302C166.079 97.0677 165.895 97.0077 165.698 96.9507C165.502 96.8932 165.305 96.8283 165.109 96.7554C164.912 96.6825 164.725 96.5967 164.546 96.4975C164.367 96.3989 164.208 96.2764 164.069 96.1306C163.931 95.9849 163.82 95.8099 163.738 95.6051C163.655 95.4003 163.614 95.1569 163.614 94.8762C163.614 94.5222 163.687 94.2124 163.833 93.9466C163.978 93.6813 164.175 93.4602 164.422 93.2827C164.669 93.1062 164.956 92.9733 165.28 92.8846C165.605 92.7963 165.946 92.7522 166.304 92.7522C166.651 92.7522 166.994 92.7938 167.332 92.8771C167.671 92.9604 167.98 93.0893 168.261 93.2649C168.542 93.4399 168.78 93.663 168.977 93.9337C169.173 94.2044 169.303 94.5257 169.366 94.8971C169.359 94.9526 169.335 95.0027 169.293 95.0478C169.251 95.0929 169.2 95.1152 169.14 95.1152H168.398C168.338 95.1152 168.287 95.0929 168.245 95.0478C168.203 95.0027 168.172 94.9541 168.151 94.902C168.056 94.6626 167.931 94.4697 167.777 94.3239C167.622 94.1781 167.461 94.0646 167.293 93.9833C167.125 93.9015 166.959 93.8479 166.798 93.8217C166.637 93.7959 166.503 93.7825 166.398 93.7825C166.216 93.7825 166.026 93.7969 165.83 93.8241C165.633 93.8524 165.454 93.9035 165.29 93.9778C165.127 94.0527 164.994 94.1573 164.89 94.2932C164.787 94.428 164.737 94.6055 164.741 94.8237C164.744 94.9734 164.784 95.1033 164.861 95.2144C164.939 95.3255 165.038 95.4236 165.159 95.5084C165.28 95.5937 165.417 95.6666 165.57 95.7271C165.722 95.788 165.875 95.8411 166.03 95.8857C166.184 95.9313 166.332 95.97 166.475 96.0032C166.616 96.0359 166.738 96.0682 166.84 96.0994C166.994 96.1515 167.172 96.2001 167.372 96.2452C167.572 96.2903 167.777 96.3448 167.988 96.4093C168.198 96.4733 168.405 96.5531 168.608 96.6488C168.812 96.744 168.993 96.8674 169.15 97.0181C169.308 97.1694 169.436 97.3558 169.532 97.5779C169.629 97.8 169.677 98.0673 169.677 98.3796Z" fill="white"/>
<path d="M81.9068 91.5796C81.9374 91.6099 81.9549 91.6445 81.9582 91.6824C81.962 91.7197 81.9538 91.7559 81.9352 91.79C81.9161 91.824 81.8882 91.8527 81.8521 91.8749C81.8155 91.897 81.7767 91.9084 81.7352 91.9084H81.2159C81.1503 91.9084 81.1 91.8808 81.065 91.8262L80.3905 90.6236C80.373 90.5895 80.3479 90.5727 80.3151 90.5727C80.2817 90.5727 80.2571 90.5895 80.2396 90.6236L79.5646 91.8262C79.5301 91.8808 79.4744 91.9084 79.3984 91.9084H78.8791C78.8305 91.9084 78.79 91.896 78.7572 91.8722C78.7239 91.8484 78.6998 91.8192 78.6845 91.7851C78.6687 91.7505 78.6627 91.7148 78.6665 91.677C78.6698 91.6391 78.6851 91.6067 78.713 91.5796L79.9335 90.3105C79.9576 90.2867 79.9805 90.2667 80.0035 90.2515C80.0259 90.2358 80.056 90.2283 80.0942 90.2283H80.5457C80.5807 90.2283 80.6075 90.2369 80.6266 90.2537C80.6452 90.271 80.6638 90.2899 80.6813 90.3105L81.9068 91.5796Z" fill="white"/>
<path d="M103.256 109.648L105.323 111L104.541 108.797L106.607 107.496H104.094L103.256 105.243L102.418 107.496H99.9039L101.971 108.797L101.189 111L103.256 109.648Z" fill="white"/>
<path d="M112.7 109.648L114.767 111L113.985 108.797L116.052 107.496L113.538 107.496L112.7 105.243L111.862 107.496H109.348L111.415 108.797L110.633 111L112.7 109.648Z" fill="white"/>
<path d="M122.144 109.648L124.211 111L123.429 108.797L125.496 107.496H122.982L122.144 105.243L121.306 107.496H118.793L120.859 108.797L120.077 111L122.144 109.648Z" fill="white"/>
<path d="M131.589 109.648L133.656 111L132.874 108.797L134.94 107.496H132.427L131.589 105.243L130.751 107.496L128.237 107.496L130.304 108.797L129.522 111L131.589 109.648Z" fill="white"/>
</g>
<defs>
<linearGradient id="paint0_linear" x1="76.4522" y1="21.7028" x2="156.48" y2="21.7028" gradientUnits="userSpaceOnUse">
<stop offset="0.0206029" stop-color="#C6A35E"/>
<stop offset="1" stop-color="#F3AC97"/>
</linearGradient>
<clipPath id="clip0">
<rect width="232" height="111" fill="white"/>
</clipPath>
</defs>
</svg>
