<svg width="80" height="44" viewBox="0 0 80 44" fill="none" xmlns="http://www.w3.org/2000/svg">
<path d="M79.6957 37.2495C78.402 37.7476 77.0904 38.0984 75.7705 38.1634C74.4486 38.2107 73.1588 37.9528 71.9447 37.5026C69.5037 36.5939 67.4019 34.8959 65.4417 33.0837C63.4812 31.2421 61.6081 29.2778 59.808 27.216C58.9014 26.1864 58.0003 25.1384 57.0439 24.1276C57.0214 24.1036 56.9969 24.0814 56.9744 24.0575C57.0081 24.0422 57.0424 24.0289 57.076 24.0135L57.9186 23.6118L58.7358 23.2072C59.2934 22.9323 59.84 22.6503 60.3846 22.3612C62.5636 21.2101 64.6599 19.9157 66.707 18.5275C67.7257 17.8261 68.7117 17.0734 69.6765 16.2863C70.6401 15.4979 71.5787 14.6679 72.4539 13.7588C73.3315 12.853 74.165 11.8856 74.892 10.8082C75.6113 9.73059 76.2338 8.52952 76.5458 7.17134L76.6543 6.66075C76.6777 6.48632 76.6907 6.30838 76.7078 6.13243C76.7527 5.77179 76.7377 5.44524 76.7354 5.11131C76.7036 4.43859 76.6274 3.74842 76.3963 3.0515C76.1637 2.36068 75.7714 1.65356 75.171 1.11557C74.575 0.573405 73.8222 0.253453 73.1047 0.114006C71.6519 -0.160797 70.3203 0.102571 69.0904 0.465071C67.8576 0.84012 66.7045 1.35775 65.6086 1.9692C65.0612 2.27562 64.5256 2.60508 64.0129 2.97288C63.5236 3.34771 63.0182 3.69915 62.538 4.08151C62.0632 4.47032 61.573 4.83958 61.1179 5.24896C60.6508 5.64406 60.1839 6.03863 59.7395 6.4571C57.9355 8.10195 56.2321 9.84044 54.5866 11.6284C52.7511 13.6324 50.9455 15.6623 49.1772 17.7226C48.5132 17.2834 47.845 16.8485 47.1646 16.4279C45.9809 15.6905 44.7584 14.9918 43.4267 14.4441C43.3706 14.4214 43.3126 14.4009 43.256 14.3788L44.2045 11.4837C44.5951 10.2827 45.037 9.05759 45.2497 7.72467C45.3498 7.05811 45.4215 6.36841 45.2777 5.60489C45.2001 5.22702 45.0468 4.80868 44.7264 4.4464C44.4076 4.07792 43.9151 3.86565 43.4868 3.80733C43.0515 3.74383 42.6557 3.78998 42.2902 3.85632C41.9336 3.9231 41.595 4.02456 41.2636 4.13698C40.6029 4.3658 39.986 4.66214 39.3957 4.99191C38.8058 5.32284 38.2432 5.68918 37.7021 6.08598C37.432 6.2831 37.171 6.52301 36.9069 6.74101L36.1871 7.39873C35.2371 8.27793 34.3138 9.16689 33.3897 10.0579L27.899 15.4391C27.7154 15.6221 27.5335 15.8065 27.35 15.9896C28.599 14.0669 29.8335 12.1361 31.0413 10.1824L31.1533 10.0013L31.1837 9.82399C31.2352 9.52353 31.2521 9.33128 31.2515 9.08207C31.2543 8.84588 31.2371 8.60315 31.1859 8.34682C31.1472 8.09637 31.0472 7.82414 30.934 7.56176C30.7794 7.2934 30.6194 7.02883 30.3621 6.8133C30.1321 6.57098 29.8387 6.45248 29.557 6.31018C29.2902 6.23265 28.9962 6.15047 28.7426 6.13079C28.4993 6.12431 28.2409 6.1113 28.0093 6.12862L27.3563 6.22778C26.9427 6.31725 26.5582 6.43609 26.1815 6.56298C25.8265 6.70875 25.4568 6.84234 25.1156 7.00196L24.1106 7.49817L23.1552 8.03861C21.1693 9.17584 19.3585 10.5375 17.647 11.9904C18.5359 10.2541 19.0825 8.39748 19.2437 6.45827C19.3185 5.40322 19.2616 4.30534 18.8881 3.24483C18.6986 2.71884 18.4201 2.20642 18.0359 1.76856C17.6553 1.32856 17.1666 0.977181 16.641 0.750007C15.5848 0.288252 14.4446 0.250323 13.4129 0.377002C12.8974 0.449515 12.3769 0.479418 11.8685 0.588187C11.3626 0.707739 10.8481 0.78806 10.3524 0.94077C6.35865 2.08761 2.89628 4.75448 0.805664 8.20126C3.13484 4.91323 6.67615 2.53499 10.5379 1.6416C11.0171 1.51678 11.5134 1.46376 11.9984 1.37079C12.4862 1.28858 12.9853 1.28427 13.4764 1.23649C14.4526 1.15719 15.4135 1.25973 16.2075 1.65241C17.0074 2.03254 17.5425 2.7563 17.7994 3.60718C18.0668 4.45802 18.094 5.411 17.9908 6.34929C17.7718 8.2285 17.1058 10.1127 16.1279 11.723C15.6249 12.5339 15.0208 13.3002 14.3899 14.0691L12.4621 16.3925L4.73329 25.7031L6.2337 26.9493C9.99516 22.7681 13.6197 18.5171 17.7249 14.8346C19.7771 13.0069 21.9328 11.2925 24.288 9.96269L25.1706 9.46856L26.0602 9.03497C26.3566 8.89794 26.6525 8.79683 26.9477 8.67386C27.237 8.5791 27.5304 8.49153 27.8029 8.43222C28.3585 8.30095 28.8161 8.39376 28.8118 8.47207C28.8376 8.47455 28.8438 8.5227 28.8771 8.54907C28.8903 8.61241 28.9247 8.66364 28.9355 8.76088C28.9536 8.84526 28.9635 8.95394 28.9598 9.06537C28.9622 9.10643 28.959 9.15669 28.9547 9.20506C27.1376 12.1517 25.2819 15.0922 23.3712 17.9793C22.3914 19.4532 21.4029 20.9231 20.374 22.3478C20.1208 22.709 19.8589 23.0586 19.5967 23.4078C19.3364 23.7601 19.0741 24.1089 18.8025 24.4404C18.5419 24.7719 18.2796 25.0965 18.0118 25.3924C17.6997 25.7087 17.3869 26.0239 17.0749 26.3402L18.5236 27.9294L18.6403 27.8243L18.6408 27.8248L18.6474 27.8179L19.1176 27.3946C19.3251 27.2124 19.4511 27.0407 19.6216 26.8629C19.821 26.6513 20.0037 26.4372 20.1813 26.2223L29.273 16.7645L34.6071 11.2582C35.502 10.3492 36.3993 9.43952 37.3056 8.5562L37.9863 7.9008C38.2119 7.70669 38.4156 7.50415 38.6573 7.31568C39.1362 6.93716 39.6379 6.58446 40.1561 6.2689C40.6742 5.95419 41.2105 5.67452 41.7573 5.46327C42.2986 5.25426 42.8924 5.09352 43.299 5.13901C43.5034 5.1648 43.6395 5.21859 43.7495 5.33099C43.8599 5.44459 43.9599 5.63458 44.0175 5.87616C44.133 6.36413 44.1134 6.96561 44.0416 7.55556C43.8948 8.74882 43.522 9.95163 43.1847 11.1886L42.3852 14.074C41.3374 13.7562 40.209 13.5887 39.0414 13.7473C38.2691 13.8612 37.4938 14.1111 36.8148 14.5198C36.6488 14.6257 36.4835 14.7336 36.3215 14.8453L35.8642 15.2121C35.5901 15.4901 35.311 15.7649 35.0625 16.0654C34.5977 16.6957 34.1874 17.3852 33.9856 18.1451C33.7394 18.8936 33.7278 19.6814 33.7589 20.4398C33.8445 21.1955 34.0164 21.9369 34.3268 22.6145C34.5969 23.3093 35.0232 23.9249 35.4752 24.4984C36.4103 25.6212 37.6991 26.4695 39.0932 26.7591L39.1504 26.5863C37.9235 25.9692 36.9533 25.0266 36.2692 23.9328C35.6069 22.8258 35.2082 21.5861 35.1815 20.3647C35.1856 19.1462 35.5752 17.9854 36.3303 17.0754C37.1075 16.1631 38.1407 15.4905 39.3134 15.2368C40.1786 15.037 41.1239 15.0421 42.0768 15.1877C41.4289 17.542 40.7584 19.8783 40.1661 22.2593C39.8975 23.5103 39.7013 24.8355 40.0102 26.1202C40.061 26.3315 40.1347 26.5371 40.2188 26.7383C39.8638 26.696 39.5096 26.6425 39.1576 26.5647L39.0861 26.7807C39.5273 26.9601 39.9867 27.0922 40.4524 27.2026C40.586 27.4286 40.7373 27.6438 40.9198 27.8322C40.9956 27.9117 41.0796 27.981 41.162 28.0522C41.047 28.2197 40.9304 28.3866 40.816 28.5543L38.761 31.5205C38.0771 32.5069 37.39 33.4878 36.6814 34.4514C35.9634 35.4064 35.2605 36.3737 34.5103 37.3007C33.7679 38.2356 32.993 39.1403 32.2016 40.0345L30.9803 41.3328C30.5804 41.7363 30.1351 42.1015 29.6491 42.3764C29.167 42.6577 28.6379 42.8492 28.1038 42.8245C27.5757 42.795 27.0571 42.5112 26.6739 42.0638L26.4869 42.1959C26.8004 42.7278 27.3392 43.2128 28.0261 43.3548C28.7073 43.4876 29.4021 43.3457 30.0021 43.0914C30.6109 42.839 31.1592 42.4903 31.6656 42.0932C32.1567 41.697 32.6072 41.2957 33.0706 40.8859C33.9762 40.0561 34.8614 39.1995 35.6842 38.2917C36.5235 37.3964 37.3246 36.4708 38.0951 35.5227C38.8633 34.5737 39.6182 33.6161 40.3484 32.6442L42.4877 29.7019C43.0073 28.9821 43.5113 28.2556 44.0168 27.53C44.8341 27.5094 45.65 27.4417 46.4567 27.3226C47.69 27.1488 48.9077 26.8879 50.1031 26.5586C51.2996 26.2326 52.4831 25.861 53.6417 25.4267C54.2963 25.1835 54.9449 24.9254 55.5898 24.6573C55.7005 24.7967 55.8112 24.9359 55.922 25.0754L58.4693 28.3117C60.1864 30.4831 62.0104 32.6203 64.1105 34.5112C65.1576 35.4606 66.3001 36.333 67.5228 37.0957C68.7372 37.8679 70.0813 38.493 71.5061 38.8674C72.9255 39.2421 74.439 39.3589 75.8777 39.0874C77.3161 38.8087 78.6315 38.1922 79.7857 37.4081L79.6957 37.2495ZM55.1446 12.1167C56.7255 10.3033 58.4163 8.58071 60.2564 7.03537C61.168 6.25347 62.1298 5.53331 63.1174 4.85693C63.6077 4.51392 64.1219 4.20695 64.6252 3.88663C65.1247 3.58669 65.6484 3.32078 66.1824 3.07672C67.2512 2.59272 68.3678 2.20456 69.4878 1.96567C70.5988 1.73456 71.7517 1.63968 72.6883 1.89127C73.6281 2.14701 74.1988 2.72246 74.4531 3.64749C74.6897 4.55867 74.6902 5.73464 74.4347 6.66713C74.1738 7.65259 73.6442 8.61883 72.9945 9.52347C72.3445 10.4317 71.5715 11.2847 70.7431 12.0925C69.0768 13.7035 67.2296 15.1862 65.2872 16.5514C63.3651 17.947 61.3378 19.2188 59.2864 20.4447C58.7732 20.7498 58.2551 21.0496 57.7371 21.3368L56.943 21.7788L56.1612 22.199C55.9339 22.3197 55.7018 22.4332 55.4725 22.5511C54.9973 22.0994 54.5124 21.6561 54.015 21.2265C52.9588 20.3077 51.8054 19.4727 50.6529 18.7076C50.5343 18.6278 50.4143 18.5489 50.2955 18.469C51.8236 16.2821 53.3972 14.1292 55.1446 12.1167ZM40.2633 26.0681C40.0593 24.839 40.3114 23.5811 40.6421 22.3747C40.9902 21.1654 41.4324 19.9559 41.8229 18.7467L42.9354 15.3568C42.9923 15.3702 43.0493 15.3817 43.106 15.396C44.4036 15.7203 45.6638 16.275 46.862 16.9323C47.5317 17.3048 48.1786 17.7176 48.8128 18.1513C47.5445 19.6374 46.2924 21.1364 45.075 22.663C44.0095 24.0233 42.9991 25.4152 42.0162 26.8192C41.4961 26.8318 40.9754 26.8119 40.4558 26.7609C40.372 26.5355 40.3037 26.3044 40.2633 26.0681ZM41.0167 27.7476C40.8884 27.5957 40.782 27.4299 40.6853 27.2588C40.9878 27.3234 41.2927 27.3758 41.6002 27.4164C41.4742 27.5982 41.349 27.7804 41.2238 27.9626C41.1533 27.8922 41.0804 27.8241 41.0167 27.7476ZM52.9523 23.7716C50.7752 24.7438 48.5382 25.6001 46.2296 26.1819C45.7344 26.3022 45.2359 26.4102 44.735 26.5055C45.3645 25.5946 45.99 24.6833 46.6198 23.7785C47.7423 22.185 48.8373 20.5665 49.9515 18.9618C50.0638 19.0446 50.1774 19.1258 50.2891 19.2095C51.4036 20.0208 52.3932 20.9349 53.3123 21.9392C53.6669 22.3223 54.0069 22.7186 54.3421 23.1194C53.8817 23.3426 53.4195 23.5626 52.9523 23.7716Z" fill="url(#paint0_linear)"/>
<defs>
<linearGradient id="paint0_linear" x1="0.452183" y1="21.7028" x2="80.4801" y2="21.7028" gradientUnits="userSpaceOnUse">
<stop offset="0.0206029" stop-color="#C6A35E"/>
<stop offset="1" stop-color="#F3AC97"/>
</linearGradient>
</defs>
</svg>
